<mxfile host="app.diagrams.net" modified="2023-11-17T13:38:09.531Z" agent="Mozilla/5.0 (Windows NT 10.0; Win64; x64) AppleWebKit/537.36 (KHTML, like Gecko) Chrome/119.0.0.0 Safari/537.36" etag="dne9hK1rpxD2NTTBiW41" version="22.1.3" type="github">
  <diagram name="第 1 页" id="YN5BQie6PkeyocpbjoSp">
    <mxGraphModel dx="1687" dy="1319" grid="0" gridSize="10" guides="1" tooltips="1" connect="1" arrows="1" fold="1" page="0" pageScale="1" pageWidth="1169" pageHeight="827" math="0" shadow="0">
      <root>
        <mxCell id="0" />
        <mxCell id="1" parent="0" />
        <mxCell id="rIetsEfEi0GEKCd9jEV6-1" value="" style="shape=image;verticalLabelPosition=bottom;labelBackgroundColor=default;verticalAlign=top;aspect=fixed;imageAspect=0;image=data:image/png,iVBORw0KGgoAAAANSUhEUgAAAEkAAABFCAYAAAAGscunAAALVklEQVR4Ae2cBYwUTxPFD3d3dw/u7k6Q4BCcYMHdNWgCBHd3gltwt2DBg7u7O9SXXyV9mdtvj9vdu93b+7OTNDM71zM7/eZV1avqXvzEtwWJgF+QPXwdJABIf/78kS9fvsiHDx/+yfbt2ze7lAgA0vv376Vx48bi5+cnUaNG/efagAEDHAOpbt26ChJA/WutV69ePpCCeum9e/f2geQDKQTcg49JDoDoAymsghQuXDgJHz68RIgQQSJFiiRRokSROHHiaIsePbpEixZN2MeIESOAHKEvjWu5R1C+xtG/exWTACVy5MgSP358bbly5ZJSpUpJw4YN5dSpU3L58mWZNGmS9OzZUwYPHizTpk0TwnPr1q2lWbNmUrp0aSlbtqwkSpRI7wNgjgLxt35eBxKsYZAJEiSQQoUKSdWqVaVDhw7y8eNHQfmvXbtWxo0bJ9OnT5fNmzfL+PHjpU+fPtKtWzepXr261KxZU5IlS6bsA/C/Dd7Rv4U6SJgFDGKfJk0aKVq0qPTt21eGDBkikydPljlz5igwnz59kh8/fsjZs2dlz549cujQIblw4YLs3btXwdqwYYPMnTtXFixYIHXq1JHChQtL1qxZ/zsgwR5Mo0KFCjJw4EABENvt9+/f8uvXL2WT7d9sPwMWQNerV++/ARIsihs3rsSKFUtIfTCft2/figEFYKwNNn3//l1ZZT1vjgFs4cKFMmzYMP9801GzCqxfqJsbEapMmTJSrlw52bp1q/qenz9/BgCJzwaYly9fyuPHj+XVq1cB+hiQ8Fvnzp2Tw4cPy5gxY8I2k2BO4sSJJUeOHDJq1CiZOHGiXL16VVlz//59uXXrljx8+FCeP38u9+7dk927d2tbvXq1+p2dO3eqlRlwrHuuu3v3rixbtky/A7kQGEscOR9qTEqbNq0UK1ZMTYIBEb1gy+fPnwUAcMQHDx5UVuzatUuaN28uTZo0kUqVKqlTJpqx2TNLmMd24sQJ7U+0cwSMwPqEGkjZs2eXGjVqaHi/c+eOvHv3TkHCacOW+fPn637Lli2yePFidcJErfLly6s06Nixo14DqPgpmmETIGF2x48fl8qVK6skCAwAR86HGkiwYt26dWpCVDzNwPA5gFGiRAlBTGbIkEGlAeaJ/0qePLmkSJFCRebs2bPl/Pnz6uhtnT1MOn36tAaDVKlShS0mmXShXbt2ak5nzpzR0jBmw9t/9uyZKuds2bJJwoQJ/085o8bxZQUKFFBfdvToUfVb+C6r6QESmgq1njp16rADEuE+ZcqUyoTRo0erQ37y5ImamQEIE8EUAQjmoJ8iRozoP0jyNs7jZ0hDunTpItwLVmFy1OIxOzacPxEOgWpyP0fMy7aPR82NAcMAHnrFihU6EOs/ly5dkpUrV2pKYvuggX1OmjSppE+fXtMXCvbU4w1IsAtZgahMly6duGp2HgWJSQTyK0yAvAv24IuePn2qjShGKoK4DAwU2/OYHuZUsWJFjYxv3rxRRgE+x0eOHNHkN0uWLAqU7fWOfPYoSFCexHTbtm1y48YNBYmBwB5yLiIW0QswHXl4+lAWYY/e4l4Iza9fv/r7J2QFeSCBIF++fA7f1/r9HgHJOOt48eJpyoAaRiDCJJQz4X7q1KmqhYoUKaIZvPUhHTkmmX39+rU8evTIPxDgyNmGDx+u0TB//vzeCxIlC5wtWf727dvl9u3bOiAGQDQbMWKE8LbwVZRJDDscAcf0ASRkAKZrmGQiJnlcyZIlxatBIlKheTAl8ioEI+IRlU0q0rRpU6lWrVqwRF/GjBnl2rVrqpvQXQBkQBo7dqzeH5MzoDqz94i54QsojBGOyaswM8wNsbd+/Xr1J0mSJNGyrDMPb+2LJJg5c6Y6fr6DzYC0aNEi6d69uwYM6zWOHnsEJMwILTNjxgw1BwZw8+ZNOXDggCxZskSjDoo6OOVWQKbMMnLkSE1uDUgAtXTpUjVnVL6jwFj7eQSkKlWq+KcgRCA2IhzsatWqldaz8Vuu+CIzGKQADpp5e3yeAQnWUmFAK2Hupr8ze4+AxAOePHlSrly54l91RCGjmHGmIVGLxu/169dPa92w1ArS0KFDVQJ4peMmncCM0D84aPwQaQMbojFnzpySKVOmYJmZYQQg9e/fX30P6QgbLKIR3Zh18UqQKHahe/BFlDRMKYMBDBo0SHOykJojs4JkzM0AhRnCWlIiA6oze7eaW8yYMdUPUHMmr8KJmgVRFOqdedCg+gIS/qhHjx5CfcpsvBgUd/HixSVv3rwufadbQeLBmUQ8duyY5lMAxDQQWqlFixYuPXBgYBHdkBiYFpVONkQlSW7btm01v6MCEdj1fzvvVpDQLsybkaeRyOKP9u3bp6o7pKZ7zOAAacKECVpjwvexIVo5btSokSbN1KJMf2f2bgWJMgYCDyUMSDAJFiEiqVk786BB9aUMgqyg2gl72FDe169fl1q1amk+SGoU1H3s/d3tIJH1E9lMHRo1TKGtc+fOIbKwwWgrCnUky9wfxhLVyOWofLI+wN7gHT3nVpDwSThNqo2ULHCimACAMY1EwgvbqFg6+sC2/Si4kfY0aNBA70s+yP0BiZexceNGjbC21znz2a0gseiBVR/79+9XkIhuNDZUMIUwgLKWZ515ePoSscyiCoDBpM2kwoMHDzQlcTX0m2dxK0gU2VjaTBLLwwOQKa3u2LFD5+uJPMx+UI10RXnXrl1b2TplyhS9P4wFJDb8EYylIGcG7MrerSAhJlk+g18iHPOmAQmwTIGM2Q4mKTNnziyxY8d2ejCkHExCsn7J3N+8CIIESa1Xz5Yws5EnTx5NQayKG5DwHThW5s0wl4IFC2rBzVQxbd8452k4ahoVA3wZmf/FixeFSQQDEj6J7yBfZAKUuTrb+znz2a1Mwnx4iwhKKoYU2hgAbxqTYCBUJindMlhKKoRpW6AABcBpmCWNaNa+fXst9PMCCPeGpS9evND7MiPD/VwxYyuIbgWJt00Jg5IITpTZWXyTGQx+gymgNWvW6OIGQrW9SQBAY6A0TJIGQ6k4UllgA3AabOKFMCHA5IJ1sK4euxUkFmeR5VNwwweZ8G9AYkBoGkwFs0OdAyhqHIdMQwjWr19fSyAskqCohrKmL6vdYCIbzMSEYRVzbVQj6e8qMNbr3AqSPZ/EYADJtsECgCSDRzUvX75cJzDZEx0BkobJci33MffiWgIDJRKW7bBajlSEzN86WFeP3QoS+od8iTfK4M1Mhi1A5jPhG2aRVtDXND7DEsNEY1rmOpgEOMiNli1bqv5CoyFBXAXGep1bQcLhYnKsnuUtM2gGxmYikRmodW98C31MM8BY9/zNbLwEZmSQHBT6rIMM7rFbQcLhwibmvPAlRLBZs2ZpY8WHFRhHjzErGIXZATorcYlirO+m6oCC58UEFxjr9W4FyXwRIRuxyAQib5t0ZN68ef4ssQJkZZFhiXWP2RmAiGwMgDWXyAeYy0uxlRDmOVzdewQkKpToJZYAEu04psaNmGTQxgGjoWAKIBggyOppSAgaFQUcOAqbBRZt2rTRsmzu3LmVPQAVJkHiwdFMNCPsWFnCMr9NmzapEMS/oKMo0HEejUNeh6ky84qvoZHQopHMJAKBwfzkFXBCGiDY5xEm2aM5+oecjvWRsIcN9uCAmTggYWWZDiVXGmsEKL1gukQtnDO+hxdg7/4heS7UQML0YAi/AoAxnTp10h/SEMZhD4V7nDCmSiNZRncBDA1GusP/2AM31ECy9zDees4HUlj9UaC3McrHJB+TQuY/evAxycckDzIJkUcBzNscqqeep2vXrtb00f84wP96Q07FBOOqVav097D8WPhfalRN7W0BQLLXwXdOAv4nUz5A7CPgY5J9XAKc/R8Awxuu9NITAQAAAABJRU5ErkJggg==;" vertex="1" parent="1">
          <mxGeometry x="113" y="335.42" width="99" height="93.58" as="geometry" />
        </mxCell>
        <mxCell id="rIetsEfEi0GEKCd9jEV6-2" value="" style="shape=image;verticalLabelPosition=bottom;labelBackgroundColor=default;verticalAlign=top;aspect=fixed;imageAspect=0;image=data:image/png,iVBORw0KGgoAAAANSUhEUgAAAKIAAAB/CAYAAABsUhnqAAAE2klEQVR4Ae3cX0sUYRTH8ambaiMogt5EN9HbqO4iotdkoFitShddRHdRYXSlaZgFYn9UiKKbkCWvDMqSQuTErBx50nWbmX1m5jjnuzA8g7jrw3k+z/ntzq6bCDcqYKACiYE5MAUqIEAEgYkKANHEMjAJIGLARAWAaGIZmAQQMWCiAkA0sQxMAogYMFEBcxC3t7fk1/onjobVYOvPj77gTUFMES4/uiQvRlsy3z7D0YAaTN88IlNDiXSW7x4OiIrw3b1zsr1wQWTxIschr8Hm3HmZu9XqQlz78MA+RBA2b9Mpwle3j8rLO6fEPEQQNhvhm4nEPkQQNh+heYgg9IHQNEQQ+kFoFiIIfSE0CRGE/hCagwhCnwhNQewifHxZuFjdHIw71wlPSnqdMMXW7zBxHRGEzcGn73blQWiiI4IQhLVDBCEINa5ri2YQglAR1tYRQQjCEGEtEEEIwr0IK4cIQhD2QlgpxB2EV7hOeMg/yKqXZ9Ix7yWagxBWBhGEdMJ+CCuBCEIQ/g9h6RBBCMIsCEuFCEIQZkVYGkQQgjAPwlIgghCEeRFGhwhCEBZBGBUiCEFYFGFUiCuT17r/rT/fPi2vx89yNKAG6deAZPlQ6yAA9b7RPn2z/OSqfL6fyMYzjqbUIIW4ON7/k9UKadAxGsSVpzdk7WEiMsvRlBpMAxHMFjADka5qIlmACEQg9viCukxf1MlzxOY9naAj0hHpiHTE5nW2oi986Ih0RDoiHZGOqB2UjkhHpCPSEemIdEQ6oYlOCEQgArFHJOuPuKDtdIPwYsXpwmskWhmBCEQTEQ1EIAJRnxgGI88RnW4MOqLThbfy3FDnAUQgEs1BJOsp0ex0Y9ARnS68RqKVEYhAJJo1j4ORaHa6MeiIThfeSiTrPIAIRKI5iGQ9JZqdbgw6otOF10i0MgIRiESz5nEwEs1ONwYd0enCW4lknQcQgUg0B5Gsp0Sz041BR3S68BqJVkYgApFo1jwORqLZ6cagIzpdeCuRrPMAIhCJ5iCS9ZRodrox6IhOF14j0coIRCASzZrHwUg0O90YdESnC28lknUeQAQi0RxEsp4SzU43Bh3R6cJrJFoZgQhEolnzOBiJZqcbg47odOGtRLLOA4hAJJqDSNZTotnpxqAjOl14jUQrIxCBSDRrHgcj0ex0Y1TVERfGEpkZPi7fVmcDdvtPgQhEeTORlHJ0EY6ckM7S+H55e34CRCDWjjA1CUQgRoeYpxNqYwQiEKNCLIKQjugUYXoJqYwXK0URAhGI0brhIAiBCMQoEAdFCEQgDgwxBkIgAnEgiLEQAhGIhSHGRAhEIBaCGBshEIGYG2IZCIEIxFwQy0IIRCBmhriDsCWdpbHUTfQbb/E5xZjnnZVdhO/b0QHqAwIRiH27YhUIU4xABOKBEKtCCESnCLN86KFKhEAEYs9uWDVCIAJxH8Q6EAIRiP9ArAshEIG4C7FOhEAEYhdi3QiBCESxgBCIziEutBOZGWlJp8R3TFJkWW5c0HaKcWookefDx0wgTKFmgzh5XdKJz49yNKUG6Xquvh3N0qwq+Z1MEH9vfJWf6x85GlSDze9fKgGW9Y9kgpj1wfg9KlC0AkAsWjnuF7UCQIxaTh6saAWAWLRy3C9qBYAYtZw8WNEKALFo5bhf1Ar8BdcdJJ0pJJvyAAAAAElFTkSuQmCC;" vertex="1" parent="1">
          <mxGeometry x="545" y="318.71" width="162" height="127" as="geometry" />
        </mxCell>
        <mxCell id="rIetsEfEi0GEKCd9jEV6-3" value="" style="shape=image;verticalLabelPosition=bottom;labelBackgroundColor=default;verticalAlign=top;aspect=fixed;imageAspect=0;image=data:image/png,iVBORw0KGgoAAAANSUhEUgAAAGgAAACoCAYAAAAM9KsVAAALaUlEQVR4Ae2dC0gUbRfH856ZliZZmpKUpFGgkZWFQkkYJZFv2UUyu5fd66MiDexiYIGBRkYJJZWY3ZVCuxBWKJWhmFFfGtqrn6ZpXhIzr+fjzPs+02jr7uzsuju7e4TleXZmnt3Z89v/OWee5+w4DOhP1hYYJuuzo5MDAiTzLwEBIkAyt4DMT48URIBkbgGZnx4piADJ3AIyPz1SEAGSuQWG4PRaW1u19qqkIC2Zsru7GzIzMyEgIABiYmK09KpAMwmaWrKpqQkSEhLA3d0dhg0bxj2OHDmi6cvy40lBvCnU63z8+BG2bdsGtra2PBgCpJ4NtX50X18f5OTkQEhISD8oPj4+cO7cOYiMjCQFad3qIl6wvb0dUlJSwNvbux+YRYsWQVZWFvz48YN7bN68mQCJsKfWDqmqqoKDBw+Co6MjD8bOzg62bt0KRUVFPBgCpDWTi3uh/Px8CA8PBwsLCx6Mh4cHnDp1Cqqrq/8AQ4DE2VWjo7q6uuD69evg7+/PQ8Ggj2kzbm9ubh4UDAHSyPTKBzc0NEB8fDy4urryYKysrGDNmjXw8uVLlVAYHGwpBim3tVp7S0tLYdOmTWBjY8ODcXZ2hsOHD8Pnz5/VAsMgESC1EPx5MKbJ2dnZEBwczENBNzZ9+nQuS0M1MWNLaQnQnzYXtaWtrQ2Sk5PBy8uLB2NmZgZLliyBhw8fagRFCJIAicLx+6DKykrYv38/ODg48GDs7e1hx44dUFJSojUwDBIB+m17pb28vDwICwsDc3NzHoynpyc3Z1ZTU6N1MARIKY5/dnZ2dkJaWhr4+fnxUDC+BAYGQkZGBrS0tAwZGAKkBFBdXR3ExcWBi4sLDwYzM5wXKygoGHIoDA625OIEoIqLiyEqKgqsra15MAgpNjYWKioqdAqGQTJ5QL29vXD37l0ICgrioaAb8/X1hUuXLkFjY6NewJg8IFxCTkxMBAz0CAQfmAAsXboUHj16pFcoDI5Jurjy8nLYvXs3jBw5kgczatQo2LNnD7x//142YBgkk3FxT58+hdDQUMCLSaYYvMhEFX39+lV2YEwCUEdHB6SmpnLTLgwKtvPnz4dbt24BujlmCLm2Rqmg2tpaLvPCiUoGZvjw4bB+/Xp48+aN7KEIvyxGBaiwsBAiIiLA0tKSBzN+/HjumganaIQf3FD6Bg+op6cHbt68CXPnzuWhoGpmzpwJly9fBixhMhQYis7TYAGh4U+fPg24bMzcGC4nL1++HDAhUPRhDXGbwQHC2rHo6GgYMWIEDwYLMHCGGfcZIgRl52wwgHJzcwFLkphasJ0yZQokJSVBfX290YFh0GQNCGvHLly4AFjEJwSzcOFCuHfvntFCYXCwlSUgrB3DdXwnJyceDLo0PNm3b9+aBBgGSVaAcCp/5cqV/WrHJkyYACdOnACExk7alFq9A8LasfT0dJg1axavFnRns2fPhqtXr4qqHTNmYHoDhNP4WFXp5ubGg8ELzFWrVgEuLxuz0dX5bHoDhD+zYIF/zJgxXL1yWVkZgfm3aJ5B1BsgLBZHQFOnToVv374RmAFgZAPo0KFDBGcQOAhJ7woiQP/8DogpZmBLgJR8ewcaSx/PCRABEtQ1CbosSSAXRy7OoJMQcnHk4gR+TdAlF6fctbGEhBREChLIRtAlBZGCDDo5IBcnc9dGgAiQIOAo6FIMohhEMUiBMHCTqPvFkYJIQaQgUpA4FbCMTEpLMwkyz+YIEAFS7AgpSRDnHklBpCBSkJTkgI0hBZGCSEFMDVJaUhApiBQkRTlsDCmIFEQKYmqQ0pKCSEGkICnKYWNIQaSgPxXU0tEIW7Zs4X7ARbXZyufkdKYgvEM7+/u76RPMXzabAIlQ75AB6urpZDz+bfsDmrZwAgHSJ6D2zrYBgH4/RQURIOWubciThF/dP38TGdAjQOLgICTm4rbu2QjCMDHApPzTwY4RbldZ1YOAFi6fRy5ODRfn/5cn9PR28yAG6whBCI8RhhyVgNo6W7j/2YY/w6csTrmamIIQUG9fj9DmavU7e37xx6sEhEfSkrdyMANj0LzwqdDX18sbWd2OUH0ESITrYgBUtUxBWv9PxG0/B/eXf9f9hAVLIigGiQA5ZIA6Ogf3l/+tagO36UsJkD4BKfORtd87YNb8lQRIroAoSRCXIAivgzAGDZZCKxODon2UJIhQhqrkgO1nMeg/Bw/Dj/YuRfZWexsBGgJA8xZvAYzd2vgjQEMAaOKsSALE3IqcWubiZgRvJEByAsPOhQHau/8glP+PXJzsfpXHAGEW193ze01Nk1hEMWgIYpDWp3pUEabJUnHXQkIFqbKp2P2kIFKQuG8fC7SG3JKCtPhtH4ovAgEiQIpDFyUJ4tw0KYgURArSJDaRgkhBpCBSkMxVQIAIkGI3NchWmurR4heGkgQtGlMTVzbYWAJEgBQ7QppJoJkE2a2ODubGlG0nF0cujlycMoWo2kcKIgWRglSpRNl+UhApiBSkTCGq9pGCSEGkIFUqUbafFEQKUq4gvFdCbm6uUVz1K1OC1H16U1BcXBz3G1UEhA9fX1+4ePEiNDY2EiyBqvUGCHVVXFwMUVFRYG1tzcNycXGB2NhYqKioIFCCe/XovHhe6Pjq6urg2LFjgHCYohDa2rVroaCgwKRB6VVBQkjY7+zshLS0NPDz8+NBIbDAwEDIyMiAlpYWk4MlK0BCYM+fP4ewsDAwMzPjYXl6ekJCQgLU1NSYDCjZAmKwMBYdOHAAHBwceFD29vYQHR0NJSUlRg9K9oAYqLa2NkhOTobJkyfzoFBdixcvhgcPHhgtKIMBxED19vZCdnY2BAcH86AwTk2bNg3Onz8PDQ0NRgXL4AAxUNiWlpZyt4y0sbHhYTk7O3M3CSwvLzcKUAYNiMFC1cTHx4OrqysPysrKClavXg0vXrwwaFBGAYiB6urqgvT0dPD39+dBofubM2cOXLt2DZqbmw0OllEBYqCwzc/Ph/DwcDA3N+dheXh4cEqrrq42GFBGC4jBqqqq4mKSo6MjD8rOzo771wRFRUWyB2X0gBio9vZ2SElJAW9vbx4Uur+QkBC4f/++bEGZDCAGCm+Kl5OTw4FBQOzh4+PDXWfV19fLCpbJAWKgsP3w4QNs374dbG1teVBOTk7czMWnT59kAcqkATFYTU1N3Byfu7s7D8rS0hJWrFgBz5490ysoAsQoAUB3dzdkZmZCQEAADwpdIKbtV65cAQQpdWVU6jgCJAAk7L5+/RoiIiIAlcTilJubGxw/fhy+fPmiM1AESEhFQR+XNmJiYgCnkBgojFkbNmyAwsLCIQdFgBRAUbSpo6MDUlNTuUlZBgpbnLS9ffs2tLa2DgksAqSIhoptT548gdDQUF5RCMrLywvOnj0LuHwvNd4oGkeAVMBQtrusrAx27doFODPBVDV69GjYu3cvl8IrMri62wiQMgIi92GtRGJiIkycOJEHZWFhAcuWLYPHjx9rpCgCJBKCmMN6enrgzp07XJELUxS2M2bM4OLX9+/f1YZFgMRYXsIxOBG7bt06wHUpBmvcuHFw9OhRqKysFA2KAEkwvjpDMGnAKtqxY8fyoHAFODIyEl69eqUSFAFSx9oaHPvr1y9uNgJLnJmisA0KCoIbN24MmqYTIA2MLnVoXl4el0AIa/4mTZoEZ86cgdra2n6qIkBSrayFcVjzt2/fPsA6P6YqrP/buXMnVxCDKTkB0oKhNX0JBJGUlNSv5g+X6vFiGNepEJ5ei+c1/YDGMh5r/rKysmDBggW8opiyCJDMKL979w42btzIgyJAMgPETgdr/k6ePMktx7Ntmraibuin6ZvQeOkWIEDSbaeTkQRIJ2aW/iYESLrtdDKSAOnEzNLfhABJt51ORhIgnZhZ+psQIOm208lIAqQTM0t/k/8DeHSvILoDo+gAAAAASUVORK5CYII=;rotation=-180;" vertex="1" parent="1">
          <mxGeometry x="341.99823529411753" y="298.2070588235295" width="104" height="168" as="geometry" />
        </mxCell>
        <mxCell id="rIetsEfEi0GEKCd9jEV6-4" value="" style="shape=flexArrow;endArrow=classic;html=1;rounded=0;entryX=1;entryY=0.5;entryDx=0;entryDy=0;" edge="1" parent="1" target="rIetsEfEi0GEKCd9jEV6-3">
          <mxGeometry width="50" height="50" relative="1" as="geometry">
            <mxPoint x="228" y="381.62" as="sourcePoint" />
            <mxPoint x="312" y="381.62" as="targetPoint" />
          </mxGeometry>
        </mxCell>
        <mxCell id="rIetsEfEi0GEKCd9jEV6-6" value="" style="shape=image;verticalLabelPosition=bottom;labelBackgroundColor=default;verticalAlign=top;aspect=fixed;imageAspect=0;image=data:image/png,iVBORw0KGgoAAAANSUhEUgAAAE4AAAB8CAYAAADHGIa7AAAHtElEQVR4Ae3d228UVRwH8P0TfEKML0afjP+ADybGFzECCUiiaLTEBzGgBiGBggWJ8tKElkKXXr0AkQqUAFJxAVtKG1oLuN1toVB6WQsNbejeoFBubeFnfqecZTqd2Tlz5nZm92xyMrPbGUI/+50z5zdndhsA+eASCHDtJXcCCccZAgkn4eYKRMYewInYeKYd7R+HowPjczfkeCVnE9cxeh92RxLw5Z/XYGXDNfgmNAA/Xb5NGofTnF1yEm4GLQ5L6iLw/r4wWZaH4/BFfRhqu1NzEHheyDk4PbSC/R3wyvo9Ek4rJdnQ5q+plXA8aBJOQ80oaYgm4VRwrGgSTgFnBk3CPYMziybhAIAHLe/heNHyGs4KWt7CNcTukjqz6OwN2NA0BBvPDEGwMwFYESAKS8u7yuFy4iHUXErDrkgKdnYmyZIW7CxgdJu8gkM0RNrSHodNbXH4ri0OO8IJCHbGoezCKFPS8g5OD21z4yCs2N8h4RRj2sxqNrQF5adI3yYTl+GaWdFCK4+kAJOGaBJOBYZPtdAqu1KwtTmWQZNwKjg9tB/P/jcLTcIp4MygSbhncGbRJFyWPk3r8EQw2rBiyNuzKk/S8h7OChrvofrW9gao6koqelb+VU+mB6NjD0gZtbU9DkXtcdjcHgccchgdnjRtPHBvFh+DikjCvxPSp6/fIwV7dXcaqrrT5BfBWnTXv7cy/ZcSSG/dTB9H0VYeCsPPl9L8MVPs6Wrizt2cgF2RJHxwLAaLjwzCsj9iUBqeSUHhqV5H4Cja579fgEWVjf6DQ7RyDbRPD0Zg3ck+KDxpP5wSDZPrO7hsaC8X1TsCp0bzHZwWWlk4AZg0RHMCTgvNV3BaaNjHfaZAsxtOD803cFpo2McVHHqeNKuJKz0/+wpwNjRfwOmhrdBAs5I4JZwRmvBwFG2pYsiBSdNDswOOBU1oOB40q3CsaMLC8aJZgcOZLiyjcHCLMEZNuHGcFTReuJX1YaiIsqMJlziraDxwn+xrg6poEmovpQ1TpkyhMIlrH7lPivSdnQlSc9K6M9uJAKHUzUzJhWiV0SR8/GuL6QsDwsD9fX0C1p0dhXfrB0lbcHiQQKphjJ6zwlG0hcEQvF64x79wzcMTsPhIDF6t6SHttZoecvgYQal/zgKnRHtxVbmEQ0QjODWahGMo8rXQJJwBHEVbFDwJiKVsso/TOVQpGp4IlGB0XcJpwBmhIZ6EU8GxoEk4VR/HisYLt6SmGWpE+NilneO4ba1DpCLQ69No30aXZg/VhRWNUHp+BKq7BPi8ql1wRU0xUnGwoplNHKKVdIxA0V/dUCvCTL4dcMvrLkJFNAnF525onj1pwtRL1sRRtI3HIzB/2drcgPuo7iL53Hxx2zCsOdZlO5wS7YWFq3IDjqJ9+EsrbGkatB1OjZYTcEo0vF5mN5wWmu/hsE/Dr7XApNGLjHbC6aEJBTdyb9LUZSVyIlCh2Zm4bGhCwd19PM0Mp4dmF5wRmi/hsqHZAceC5js4IzSrcKxovoJjQbMKhxUBDm4RxqgJMwDO1sexovHCvbFpL+zujDOj+SJxZtB44F76KgiFoasEzihlyp8Lk7g7j6dhdeNNePtAP2nvHOwnxTrelqAcpyFOtmZmHDeDdoVMDW5r7DU8PIWESz2chh/+GYMtbbcyDW+7N4NmJnEUrfjcMKw+EgU34KanpxX3mj9fDcybNw+mpqaev2JiDfu4b1tuwfLQSKaZvS2BFU6J9l7wtKNwT58+zSjowgUCAXj06FFmQzMr/aMpV+DUaIhtV+L0YKjD5OQkXZ21DJSVlcGTJ09mvcjyBN8VvB7ndOIyaG3DgEmjfaVdcCy/q9Y2lj4g4jScHpqdidNCYXlNWLhsaBLu2TBFPRwxQpNwGnAsaBJOBceKJuEUcGuPd0Nh6ArgxI3y7IlIWo3nrLqi6gTU9SRY+n7DbYQ4OXzfNHMnJysaT+IKKhvgt8sJeDhlfuilpeg53NLaZnLLPc6wsySNps9M4uxGQ0hP4RANP6tQ3ZWE9aGrmockhVIvWeGcQPMUjqKVtAxAWft1R+CcQvMMbgZtDEpaB6DoUIsjcE6ieQKnTBqiOQHnNJrrcFpodsO5geYqnB6anXBuobkGlw3NLjg30VyBM0KzA85tNMfhWNCswnmB5igcK5oVOBw421lGIQjrw5HKwQwaL9yGUC9Ud6dsqz1Zweh2luDO3Jg754BfMIVlFFYEiMLSzFYOXx+Nwt6eNNx7bE/BTjHMLC3B1fXeId/MVRJOArbScJJMSJtBM5s4EdAQ2BLcqSH8SrPbsxomjiVlym1YEycKmmU4nOVSw+GEtBKFZZ0FTiQ038CJhuYLOBHRhIcTFU1oOJHRhIUTHU1IOD+gCQfnFzSh4ErOj3heRiEI68NS5WDXADh44SYp1bysPVnB6Haew5W29MG+njQkH2jfa0v/o6ItPYXb0doHB3pve3ZpyMqb4Rmcn9EQ3BM4v6N5ApcLaK7D5Qqaq3A7Wvt9eyJAKPXDlT4u19AQ0XG4XERzHC5X0RyFy2U0x+ByHc0y3JnhCajVmB70axmFIKwPSycH/KNkOLeKfzKKtsP9476sPVnB6HaW4Og/ko9LCcf5rks4CccpwLmbTBwn3P/3nWx0udCCPQAAAABJRU5ErkJggg==;" vertex="1" parent="1">
          <mxGeometry x="305.9994117647059" y="-26.998235294117535" width="78" height="124" as="geometry" />
        </mxCell>
      </root>
    </mxGraphModel>
  </diagram>
</mxfile>
